<svg xmlns="http://www.w3.org/2000/svg" width="22.521" height="10.602" viewBox="0 0 22.521 10.602"><defs><style>.a{fill:#fff;}</style></defs><path class="a" d="M5.209,18.535a.52.52,0,0,1-.5.54H3.55a.521.521,0,0,1-.5-.54V12.042a.522.522,0,0,1,.5-.54H4.706a.522.522,0,0,1,.5.54Z" transform="translate(-1.254 -9.987)"/><path class="a" d="M9.643,19.348a.731.731,0,0,1-.7.756H7.32a.732.732,0,0,1-.705-.756v-9.09A.733.733,0,0,1,7.32,9.5H8.94a.732.732,0,0,1,.7.756v9.09Z" transform="translate(-2.311 -9.502)"/><path class="a" d="M1.991,16.743a.585.585,0,0,1-.564.607H1.063A.586.586,0,0,1,.5,16.743V15.456a.587.587,0,0,1,.564-.607h.364a.586.586,0,0,1,.564.607Z" transform="translate(-0.499 -10.799)"/><path class="a" d="M26.881,18.535a.521.521,0,0,0,.5.54H28.54a.522.522,0,0,0,.5-.54V12.042a.523.523,0,0,0-.5-.54H27.383a.522.522,0,0,0-.5.54Z" transform="translate(-8.315 -9.987)"/><path class="a" d="M22.082,19.348a.731.731,0,0,0,.7.756h1.621a.73.73,0,0,0,.7-.756v-9.09a.731.731,0,0,0-.7-.756H22.786a.732.732,0,0,0-.7.756Z" transform="translate(-6.893 -9.502)"/><path class="a" d="M30.381,16.743a.585.585,0,0,0,.564.607h.365a.585.585,0,0,0,.564-.607V15.456a.586.586,0,0,0-.564-.607h-.365a.586.586,0,0,0-.564.607Z" transform="translate(-9.352 -10.799)"/><rect class="a" width="6.49" height="1.25" transform="translate(8.016 4.677)"/></svg>