<svg xmlns="http://www.w3.org/2000/svg" width="395.15" height="85.796" viewBox="0 0 395.15 85.796"><defs><style>.a{fill:#ffd633;}</style></defs><g transform="translate(0 13.54)"><path class="a" d="M1545,451.415l-13.753,8.1v-7.041l13.753-8.1q2.229-1.275,2.228,1.231C1547.226,447.274,1546.484,450.565,1545,451.415Zm.148,13.024-13.51,8-.148-7.54,13.51-8c1.486-.848,2.228.576,2.228,2.247s-.6,4.448-2.081,5.3Zm8.833-9.872c-.246-3-1.44-4.65-3.331-3.461a8.838,8.838,0,0,0,3.208-5.9,7.489,7.489,0,0,0,.055-.914v-5.009c0-.454-.016-.879-.055-1.271q-.55-5.895-6.629-2.42l-4.457,2.549-16.618,9.723a4.909,4.909,0,0,0-2.261,4.5l0,23.915a1.908,1.908,0,0,1-2.808,1.2,1.8,1.8,0,0,1-.822-1.107l.011-26.381a4.937,4.937,0,0,1,2.664-4.272l24.258-13.91c3.438-1.984,3.644-4.023.206-6.007l-9.136-5.274-29.523,17.2a5.66,5.66,0,0,0-1.515,1.344,4.979,4.979,0,0,0-1.1,3.049v1.307a1.752,1.752,0,0,1-3.5,0v-2.939a7.487,7.487,0,0,1,.13-1.417,4.681,4.681,0,0,1,2.164-3.173l29.9-17.345-10.088-5.824a6.117,6.117,0,0,0-2.719-.647h-.075a5.618,5.618,0,0,0-2.761.715l-27.017,15.6a4.992,4.992,0,0,0-2.642,4.324v30.919a4.9,4.9,0,0,0,2.451,4.247l26.428,15.3c.231.133.549.308.722.407a5.131,5.131,0,0,0,2.766.746,6.569,6.569,0,0,0,3.516-1.016l.009-.005,14.615-8.494,8.313-4.8c.345-.2,1.439-.83,1.443-.832,3.412-2.276,3.864-4.32,4.2-8.3.036-.436.007-.919.007-1.377,0,0,.029-4.5-.007-4.947Z" transform="translate(-1257.598 -412.08)"/><path class="a" d="M232.5,439.076v16.091h29.563v12.349H232.5v24.791H217.72V426.82h47.056l-.093,12.256Z" transform="translate(-217.72 -424.132)"/><path class="a" d="M567.1,492.306h14.78V426.82H567.1Z" transform="translate(-503.39 -424.132)"/><path class="a" d="M771.107,439.357v52.949H756.326V439.357H736.4V426.82h54.727v12.537Z" transform="translate(-641.818 -424.132)"/><path class="a" d="M1139.05,480.23h14.594c7.017,0,11.226-2.9,11.226-7.952,0-4.77-4.21-7.67-11.226-7.67H1139.05Zm0-27.035h14.594c5.52,0,8.981-2.713,8.981-7.3,0-4.491-3.461-7.017-8.981-7.017H1139.05Zm15.341-26.383c14.408,0,23.388,6.269,23.388,16.371a14.35,14.35,0,0,1-11.319,14.408c8.419,1.59,13.658,7.951,13.658,16.558,0,11.226-9.449,18.148-24.7,18.148H1124.27V426.81h30.121Z" transform="translate(-958.96 -424.124)"/><path class="a" d="M1930.149,492.306h-17.681l-15.436-21.8-15.153,21.8H1864.57l23.481-33.491-21.891-32h17.216l13.656,20.02,13.753-20.02h17.493l-21.8,31.341Z" transform="translate(-1564.265 -424.132)"/><path class="a" d="M1545,451.415l-13.753,8.1v-7.041l13.753-8.1q2.229-1.275,2.228,1.231C1547.226,447.274,1546.484,450.565,1545,451.415Zm.148,13.024-13.51,8-.148-7.54,13.51-8c1.486-.848,2.228.576,2.228,2.247s-.6,4.448-2.081,5.3Zm8.833-9.872c-.246-3-1.44-4.65-3.331-3.461a8.838,8.838,0,0,0,3.208-5.9,7.489,7.489,0,0,0,.055-.914v-5.009c0-.454-.016-.879-.055-1.271q-.55-5.895-6.629-2.42l-4.457,2.549-16.618,9.723a4.909,4.909,0,0,0-2.261,4.5l0,23.915a1.908,1.908,0,0,1-2.808,1.2,1.8,1.8,0,0,1-.822-1.107l.011-26.381a4.937,4.937,0,0,1,2.664-4.272l24.258-13.91c3.438-1.984,3.644-4.023.206-6.007l-9.136-5.274-29.523,17.2a5.66,5.66,0,0,0-1.515,1.344,4.979,4.979,0,0,0-1.1,3.049v1.307a1.752,1.752,0,0,1-3.5,0v-2.939a7.487,7.487,0,0,1,.13-1.417,4.681,4.681,0,0,1,2.164-3.173l29.9-17.345-10.088-5.824a6.117,6.117,0,0,0-2.719-.647h-.075a5.618,5.618,0,0,0-2.761.715l-27.017,15.6a4.992,4.992,0,0,0-2.642,4.324v30.919a4.9,4.9,0,0,0,2.451,4.247l26.428,15.3c.231.133.549.308.722.407a5.131,5.131,0,0,0,2.766.746,6.569,6.569,0,0,0,3.516-1.016l.009-.005,14.615-8.494,8.313-4.8c.345-.2,1.439-.83,1.443-.832,3.412-2.276,3.864-4.32,4.2-8.3.036-.436.007-.919.007-1.377,0,0,.029-4.5-.007-4.947Z" transform="translate(-1257.598 -412.08)"/><path class="a" d="M232.5,439.076v16.091h29.563v12.349H232.5v24.791H217.72V426.82h47.056l-.093,12.256Z" transform="translate(-217.72 -424.132)"/><path class="a" d="M567.1,492.306h14.78V426.82H567.1Z" transform="translate(-503.39 -424.132)"/><path class="a" d="M771.107,439.357v52.949H756.326V439.357H736.4V426.82h54.727v12.537Z" transform="translate(-641.818 -424.132)"/><path class="a" d="M1139.05,480.23h14.594c7.017,0,11.226-2.9,11.226-7.952,0-4.77-4.21-7.67-11.226-7.67H1139.05Zm0-27.035h14.594c5.52,0,8.981-2.713,8.981-7.3,0-4.491-3.461-7.017-8.981-7.017H1139.05Zm15.341-26.383c14.408,0,23.388,6.269,23.388,16.371a14.35,14.35,0,0,1-11.319,14.408c8.419,1.59,13.658,7.951,13.658,16.558,0,11.226-9.449,18.148-24.7,18.148H1124.27V426.81h30.121Z" transform="translate(-958.96 -424.124)"/><path class="a" d="M1930.149,492.306h-17.681l-15.436-21.8-15.153,21.8H1864.57l23.481-33.491-21.891-32h17.216l13.656,20.02,13.753-20.02h17.493l-21.8,31.341Z" transform="translate(-1564.265 -424.132)"/></g><path class="a" d="M2234.626,352.75V340.356H2230.2V337.83h11.855v2.526h-4.415V352.75Zm9.335,0V337.83h4.51l2.706,10.179,2.675-10.179h4.521v14.92h-2.8V341l-2.963,11.745h-2.9L2246.758,341V352.75h-2.8Z" transform="translate(-1863.222 -337.83)"/></svg>