<svg xmlns="http://www.w3.org/2000/svg" width="297" height="130.803" viewBox="0 0 297 130.803"><defs><style>.a{fill:none;}</style></defs><rect class="a" width="297" height="130.803"/><g transform="translate(24.848 38.554)"><g transform="translate(0 8.475)"><path d="M1514.837,434.1l-8.607,5.068V434.76l8.607-5.068q1.4-.8,1.394.77c0,1.045-.465,3.1-1.394,3.636Zm.092,8.151-8.456,5.007-.092-4.719,8.456-5.01c.93-.531,1.394.361,1.394,1.406S1515.858,441.716,1514.929,442.249Zm5.528-6.179c-.154-1.88-.9-2.91-2.084-2.166a5.532,5.532,0,0,0,2.008-3.695,4.669,4.669,0,0,0,.034-.572V426.5c0-.285-.01-.55-.034-.8q-.345-3.688-4.148-1.515l-2.79,1.6-10.4,6.085a3.073,3.073,0,0,0-1.415,2.817v14.967a1.2,1.2,0,0,1-1.758.75,1.126,1.126,0,0,1-.515-.693l.007-16.51a3.087,3.087,0,0,1,1.668-2.674l15.182-8.706c2.151-1.242,2.28-2.517.129-3.759l-5.718-3.3-18.477,10.765a3.558,3.558,0,0,0-.949.842,3.12,3.12,0,0,0-.69,1.908v.819a1.1,1.1,0,0,1-2.193,0v-1.84a4.741,4.741,0,0,1,.08-.887,2.93,2.93,0,0,1,1.355-1.986l18.715-10.856-6.313-3.645a3.821,3.821,0,0,0-1.7-.4h-.047a3.517,3.517,0,0,0-1.727.448l-16.908,9.762a3.124,3.124,0,0,0-1.653,2.706v19.351a3.069,3.069,0,0,0,1.534,2.658l16.54,9.576c.145.084.343.192.452.255a3.21,3.21,0,0,0,1.731.467,4.119,4.119,0,0,0,2.2-.635l.006,0,9.147-5.316,5.2-3c.216-.122.9-.519.9-.52,2.135-1.424,2.418-2.7,2.629-5.192.023-.272,0-.575,0-.861,0,0,.018-2.815,0-3.1Z" transform="translate(-1334.968 -409.48)"/><path d="M225.6,431.8v10.071h18.5V449.6H225.6v15.515H216.35V424.13H245.8l-.057,7.67Z" transform="translate(-216.35 -422.447)"/><path d="M563.53,465.114h9.25V424.13h-9.25Z" transform="translate(-523.657 -422.447)"/><path d="M753.482,431.975v33.139H744.23V431.975H731.76V424.13h34.25v7.845Z" transform="translate(-672.565 -422.447)"/><path d="M1126.42,457.562h9.134c4.391,0,7.025-1.816,7.025-4.978,0-2.986-2.635-4.8-7.025-4.8h-9.134v9.777Zm0-16.92h9.134c3.455,0,5.621-1.7,5.621-4.568,0-2.81-2.166-4.392-5.621-4.392h-9.134Zm9.6-16.512c9.017,0,14.637,3.923,14.637,10.247a8.981,8.981,0,0,1-7.084,9.017,10.057,10.057,0,0,1,8.548,10.363c0,7.025-5.914,11.359-15.456,11.359h-19.5V424.131h18.851Z" transform="translate(-1013.711 -422.447)"/><path d="M1893.853,465.114h-11.066l-9.66-13.642-9.484,13.642H1852.81l14.7-20.96-13.7-20.024h10.773l8.548,12.53,8.607-12.53h10.949l-13.643,19.614Z" transform="translate(-1664.863 -422.447)"/><path d="M1514.837,434.1l-8.607,5.068V434.76l8.607-5.068q1.4-.8,1.394.77c0,1.045-.465,3.1-1.394,3.636Zm.092,8.151-8.456,5.007-.092-4.719,8.456-5.01c.93-.531,1.394.361,1.394,1.406S1515.858,441.716,1514.929,442.249Zm5.528-6.179c-.154-1.88-.9-2.91-2.084-2.166a5.532,5.532,0,0,0,2.008-3.695,4.669,4.669,0,0,0,.034-.572V426.5c0-.285-.01-.55-.034-.8q-.345-3.688-4.148-1.515l-2.79,1.6-10.4,6.085a3.073,3.073,0,0,0-1.415,2.817v14.967a1.2,1.2,0,0,1-1.758.75,1.126,1.126,0,0,1-.515-.693l.007-16.51a3.087,3.087,0,0,1,1.668-2.674l15.182-8.706c2.151-1.242,2.28-2.517.129-3.759l-5.718-3.3-18.477,10.765a3.558,3.558,0,0,0-.949.842,3.12,3.12,0,0,0-.69,1.908v.819a1.1,1.1,0,0,1-2.193,0v-1.84a4.741,4.741,0,0,1,.08-.887,2.93,2.93,0,0,1,1.355-1.986l18.715-10.856-6.313-3.645a3.821,3.821,0,0,0-1.7-.4h-.047a3.517,3.517,0,0,0-1.727.448l-16.908,9.762a3.124,3.124,0,0,0-1.653,2.706v19.351a3.069,3.069,0,0,0,1.534,2.658l16.54,9.576c.145.084.343.192.452.255a3.21,3.21,0,0,0,1.731.467,4.119,4.119,0,0,0,2.2-.635l.006,0,9.147-5.316,5.2-3c.216-.122.9-.519.9-.52,2.135-1.424,2.418-2.7,2.629-5.192.023-.272,0-.575,0-.861,0,0,.018-2.815,0-3.1Z" transform="translate(-1334.968 -409.48)"/><path d="M225.6,431.8v10.071h18.5V449.6H225.6v15.515H216.35V424.13H245.8l-.057,7.67Z" transform="translate(-216.35 -422.447)"/><path d="M563.53,465.114h9.25V424.13h-9.25Z" transform="translate(-523.657 -422.447)"/><path d="M753.482,431.975v33.139H744.23V431.975H731.76V424.13h34.25v7.845Z" transform="translate(-672.565 -422.447)"/><path d="M1126.42,457.562h9.134c4.391,0,7.025-1.816,7.025-4.978,0-2.986-2.635-4.8-7.025-4.8h-9.134v9.777Zm0-16.92h9.134c3.455,0,5.621-1.7,5.621-4.568,0-2.81-2.166-4.392-5.621-4.392h-9.134Zm9.6-16.512c9.017,0,14.637,3.923,14.637,10.247a8.981,8.981,0,0,1-7.084,9.017,10.057,10.057,0,0,1,8.548,10.363c0,7.025-5.914,11.359-15.456,11.359h-19.5V424.131h18.851Z" transform="translate(-1013.711 -422.447)"/><path d="M1893.853,465.114h-11.066l-9.66-13.642-9.484,13.642H1852.81l14.7-20.96-13.7-20.024h10.773l8.548,12.53,8.607-12.53h10.949l-13.643,19.614Z" transform="translate(-1664.863 -422.447)"/></g><path d="M2218.909,345.028v-7.757h-2.769v-1.58h7.419v1.58H2220.8v7.757Zm5.843,0V335.69h2.823l1.693,6.371,1.673-6.371h2.83v9.338h-1.75v-7.35l-1.855,7.35h-1.815l-1.849-7.35v7.35Z" transform="translate(-1986.465 -335.69)"/></g></svg>