<svg xmlns="http://www.w3.org/2000/svg" width="299.853" height="456.364" viewBox="0 0 299.853 456.364"><defs><style>.a{fill:#101010;}.a,.b,.c,.e,.i{fill-rule:evenodd;}.b{fill:none;stroke:#707070;}.c{fill:#272830;}.d,.e,.f,.j{fill:#ffd633;}.d{font-size:22px;font-family:HelveticaNeue-Bold, Helvetica Neue;font-weight:700;}.f{font-size:24px;}.f,.k{font-family:Helvetica;}.g{font-size:18px;}.h,.k{fill:#fff;}.h{font-size:16px;font-family:HelveticaNeue, Helvetica Neue;}.i{fill:#363636;}.k{font-size:12px;}</style></defs><g transform="translate(0.5 0.5)"><path class="a" d="M53,51H351.853V506.364H53Z" transform="translate(-53 -51)"/><path class="b" d="M53,51H351.853V506.364H53Z" transform="translate(-53 -51)"/><path class="c" d="M596.581,803.449H706.675a2.55,2.55,0,0,1,2.55,2.55v95.03a2.55,2.55,0,0,1-2.55,2.55H596.581a2.55,2.55,0,0,1-2.55-2.55V806A2.55,2.55,0,0,1,596.581,803.449Z" transform="translate(-502.047 -675.521)"/><path class="c" d="M596.581,1477.17H706.675a2.551,2.551,0,0,1,2.55,2.55v95.03a2.55,2.55,0,0,1-2.55,2.55H596.581a2.55,2.55,0,0,1-2.55-2.55v-95.03A2.55,2.55,0,0,1,596.581,1477.17Z" transform="translate(-502.047 -1234.699)"/><text class="d" transform="translate(100.895 47.833)"><tspan x="0" y="0">FIT-TRIAL</tspan></text><path class="e" d="M213.7,507.462v-1.139H457.324v1.139Z" transform="translate(-186.379 -428.911)"/><text class="f" transform="translate(149.404 164.904)"><tspan x="-13.348" y="0">24</tspan><tspan class="g"><tspan x="0" y="11"></tspan></tspan><tspan class="h"><tspan x="-42.376" y="22">Entry Credit</tspan></tspan></text><text class="f" transform="translate(147.404 285.3)"><tspan x="-20.021" y="0">500</tspan></text><path class="i" d="M294.017,2414.66H506.91v11.4H294.017Z" transform="translate(-253.04 -2012.801)"/><path class="j" d="M596.21,1478h0v99.8h0a2.21,2.21,0,0,1-2.21-2.21V1480.21A2.21,2.21,0,0,1,596.21,1478Z" transform="translate(-502.022 -1235.388)"/><path class="j" d="M596.21,803h0v99.8h0a2.21,2.21,0,0,1-2.21-2.21V805.21A2.21,2.21,0,0,1,596.21,803Z" transform="translate(-502.022 -675.148)"/><text class="k" transform="translate(149 293)"><tspan x="0" y="0"></tspan><tspan x="-26.566" y="18">Welcome </tspan><tspan x="-16.005" y="36">Credit</tspan></text></g></svg>