<svg xmlns="http://www.w3.org/2000/svg" width="34" height="34" viewBox="0 0 34 34"><defs><style>.a{fill:#fbd530;}</style></defs><path class="a" d="M33.9,9.991a12.48,12.48,0,0,0-.79-4.126,8.332,8.332,0,0,0-1.961-3.011A8.334,8.334,0,0,0,28.135.892,12.478,12.478,0,0,0,24.009.1C22.2.02,21.617,0,17,0S11.8.02,9.991.1a12.482,12.482,0,0,0-4.127.79A8.332,8.332,0,0,0,2.853,2.853,8.333,8.333,0,0,0,.892,5.864,12.48,12.48,0,0,0,.1,9.991C.02,11.8,0,12.383,0,17s.02,5.2.1,7.009a12.477,12.477,0,0,0,.79,4.126,8.331,8.331,0,0,0,1.961,3.011,8.33,8.33,0,0,0,3.011,1.961,12.474,12.474,0,0,0,4.127.79c1.813.083,2.392.1,7.009.1s5.2-.019,7.009-.1a12.475,12.475,0,0,0,4.127-.79,8.691,8.691,0,0,0,4.972-4.972,12.477,12.477,0,0,0,.79-4.126C33.98,22.2,34,21.617,34,17S33.98,11.8,33.9,9.991ZM30.838,23.87a9.406,9.406,0,0,1-.585,3.157,5.63,5.63,0,0,1-3.226,3.226,9.406,9.406,0,0,1-3.157.585c-1.792.082-2.33.1-6.869.1s-5.077-.017-6.87-.1a9.409,9.409,0,0,1-3.157-.585,5.268,5.268,0,0,1-1.955-1.272,5.266,5.266,0,0,1-1.272-1.955,9.406,9.406,0,0,1-.585-3.157c-.082-1.792-.1-2.33-.1-6.869s.017-5.077.1-6.87a9.412,9.412,0,0,1,.585-3.157A5.27,5.27,0,0,1,5.019,5.019,5.263,5.263,0,0,1,6.974,3.748a9.4,9.4,0,0,1,3.157-.585c1.792-.082,2.33-.1,6.869-.1h0c4.539,0,5.077.017,6.87.1a9.407,9.407,0,0,1,3.157.585,5.271,5.271,0,0,1,1.955,1.272,5.263,5.263,0,0,1,1.272,1.955,9.4,9.4,0,0,1,.585,3.157c.082,1.792.1,2.33.1,6.869S30.92,22.077,30.838,23.87Zm0,0" transform="translate(0 0)"/><path class="a" d="M133.269,124.539a8.73,8.73,0,1,0,8.73,8.73A8.73,8.73,0,0,0,133.269,124.539Zm0,14.4a5.667,5.667,0,1,1,5.667-5.667A5.667,5.667,0,0,1,133.269,138.935Zm0,0" transform="translate(-116.269 -116.269)"/><path class="a" d="M366.01,90.665a2.04,2.04,0,1,1-2.04-2.04A2.04,2.04,0,0,1,366.01,90.665Zm0,0" transform="translate(-337.895 -82.74)"/></svg>